<svg width="16" height="16" viewBox="0 0 16 16" fill="none" xmlns="http://www.w3.org/2000/svg">
<path d="M14 1.33325V5.33325H10" stroke="#64748B" stroke-linecap="round" stroke-linejoin="round"/>
<path d="M2 7.99991C2.00105 6.84212 2.33707 5.70936 2.9675 4.73827C3.59794 3.76717 4.49588 2.99922 5.55301 2.52703C6.61013 2.05485 7.7813 1.8986 8.92524 2.07714C10.0692 2.25568 11.137 2.76138 12 3.53324L14 5.33324" stroke="#64748B" stroke-linecap="round" stroke-linejoin="round"/>
<path d="M2 14.6667V10.6667H6" stroke="#64748B" stroke-linecap="round" stroke-linejoin="round"/>
<path d="M14 8C13.9989 9.15779 13.6629 10.2905 13.0325 11.2616C12.4021 12.2327 11.5041 13.0007 10.447 13.4729C9.38987 13.9451 8.2187 14.1013 7.07476 13.9228C5.93082 13.7442 4.86297 13.2385 4 12.4667L2 10.6667" stroke="#64748B" stroke-linecap="round" stroke-linejoin="round"/>
</svg>
