<svg width="40" height="40" viewBox="0 0 40 40" fill="none" xmlns="http://www.w3.org/2000/svg">
<path d="M10 3.33325L5 9.99992V33.3333C5 34.2173 5.35119 35.0652 5.97631 35.6903C6.60143 36.3154 7.44928 36.6666 8.33333 36.6666H31.6667C32.5507 36.6666 33.3986 36.3154 34.0237 35.6903C34.6488 35.0652 35 34.2173 35 33.3333V9.99992L30 3.33325H10Z" stroke="black" stroke-width="2" stroke-linecap="round" stroke-linejoin="round"/>
<path d="M5 10H35" stroke="black" stroke-width="2" stroke-linecap="round" stroke-linejoin="round"/>
<path d="M26.6666 16.6667C26.6666 18.4349 25.9643 20.1306 24.714 21.3808C23.4638 22.631 21.7681 23.3334 20 23.3334C18.2319 23.3334 16.5362 22.631 15.2859 21.3808C14.0357 20.1306 13.3333 18.4349 13.3333 16.6667" stroke="black" stroke-width="2" stroke-linecap="round" stroke-linejoin="round"/>
</svg>
