<svg width="40" height="40" viewBox="0 0 40 40" fill="none" xmlns="http://www.w3.org/2000/svg">
<path d="M18.3333 6.6665H6.66665C5.78259 6.6665 4.93474 7.01769 4.30962 7.64281C3.6845 8.26794 3.33331 9.11578 3.33331 9.99984V33.3332C3.33331 34.2172 3.6845 35.0651 4.30962 35.6902C4.93474 36.3153 5.78259 36.6665 6.66665 36.6665H30C30.884 36.6665 31.7319 36.3153 32.357 35.6902C32.9821 35.0651 33.3333 34.2172 33.3333 33.3332V21.6665" stroke="black" stroke-width="2" stroke-linecap="round" stroke-linejoin="round"/>
<path d="M30.8333 4.16688C31.4964 3.50384 32.3956 3.13135 33.3333 3.13135C34.271 3.13135 35.1703 3.50384 35.8333 4.16688C36.4964 4.82992 36.8688 5.7292 36.8688 6.66688C36.8688 7.60456 36.4964 8.50384 35.8333 9.16688L20 25.0002L13.3333 26.6669L15 20.0002L30.8333 4.16688Z" stroke="black" stroke-width="2" stroke-linecap="round" stroke-linejoin="round"/>
</svg>
