<svg width="26" height="25" viewBox="0 0 26 25" fill="none" xmlns="http://www.w3.org/2000/svg">
<path d="M17.4219 12.9062C17.4219 11.5729 17.0104 10.5417 16.1875 9.8125C15.3646 9.08333 14.276 8.71875 12.9219 8.71875C11.776 8.71875 10.7917 9.11458 9.96875 9.90625C9.14583 10.6979 8.73438 11.6458 8.73438 12.75C8.73438 13.375 8.81771 13.9375 8.98438 14.4375C9.15104 14.9271 9.375 15.3385 9.65625 15.6719C9.94792 15.9948 10.2917 16.2656 10.6875 16.4844C11.0833 16.6927 11.4948 16.8438 11.9219 16.9375C12.3594 17.0312 12.8229 17.0781 13.3125 17.0781C14.5 17.0781 15.5833 16.7865 16.5625 16.2031V17.3281C15.5521 17.8594 14.4635 18.125 13.2969 18.125C12.5469 18.125 11.8385 18.026 11.1719 17.8281C10.5156 17.6198 9.91667 17.3125 9.375 16.9062C8.83333 16.4896 8.40104 15.9271 8.07812 15.2188C7.76562 14.5 7.60938 13.6771 7.60938 12.75C7.60938 11.3125 8.11458 10.0938 9.125 9.09375C10.1354 8.09375 11.401 7.59375 12.9219 7.59375C14.599 7.59375 15.9531 8.06771 16.9844 9.01562C18.026 9.95312 18.5469 11.25 18.5469 12.9062V24H17.4219V12.9062ZM20.7969 12.9062V24H19.6719V12.9062C19.6719 10.9375 19.0417 9.375 17.7812 8.21875C16.5208 7.05208 14.901 6.46875 12.9219 6.46875C11.0885 6.46875 9.55729 7.07812 8.32812 8.29688C7.09896 9.51562 6.48438 11 6.48438 12.75C6.48438 13.8125 6.66667 14.7656 7.03125 15.6094C7.40625 16.4531 7.91146 17.1302 8.54688 17.6406C9.18229 18.151 9.89062 18.5417 10.6719 18.8125C11.4635 19.0729 12.2969 19.2031 13.1719 19.2031C14.3594 19.2031 15.4896 18.9271 16.5625 18.375V19.5625C15.4375 20.0312 14.3021 20.2656 13.1562 20.2656C12.125 20.2656 11.1458 20.1094 10.2188 19.7969C9.29167 19.474 8.46354 19.0104 7.73438 18.4062C7.00521 17.7917 6.42708 17 6 16.0312C5.57292 15.0521 5.35938 13.9583 5.35938 12.75C5.35938 10.6979 6.08333 8.95312 7.53125 7.51562C8.98958 6.06771 10.7865 5.34375 12.9219 5.34375C14.4219 5.34375 15.7656 5.65104 16.9531 6.26562C18.1406 6.86979 19.0781 7.75 19.7656 8.90625C20.4531 10.0625 20.7969 11.3958 20.7969 12.9062ZM23.0469 12.9062V24H21.9219V12.9062C21.9219 11.1875 21.526 9.66667 20.7344 8.34375C19.9531 7.01042 18.8802 5.98958 17.5156 5.28125C16.151 4.57292 14.6198 4.21875 12.9219 4.21875C11.3073 4.21875 9.83333 4.60417 8.5 5.375C7.16667 6.13542 6.11979 7.16667 5.35938 8.46875C4.60938 9.77083 4.23438 11.1979 4.23438 12.75C4.23438 14.0833 4.47917 15.3021 4.96875 16.4062C5.45833 17.5 6.11458 18.401 6.9375 19.1094C7.77083 19.8177 8.71354 20.3698 9.76562 20.7656C10.8281 21.151 11.9375 21.3438 13.0938 21.3438C14.2708 21.3438 15.4271 21.099 16.5625 20.6094V21.75C15.375 22.1979 14.2083 22.4219 13.0625 22.4219C11.2604 22.4219 9.60417 22.0156 8.09375 21.2031C6.58333 20.3906 5.375 19.2396 4.46875 17.75C3.5625 16.2604 3.10938 14.5938 3.10938 12.75C3.10938 11.4375 3.35938 10.1875 3.85938 9C4.36979 7.8125 5.05729 6.78646 5.92188 5.92188C6.78646 5.05729 7.82812 4.36979 9.04688 3.85938C10.2656 3.34896 11.5573 3.09375 12.9219 3.09375C14.8281 3.09375 16.5469 3.5 18.0781 4.3125C19.6198 5.125 20.8333 6.28125 21.7188 7.78125C22.6042 9.28125 23.0469 10.9896 23.0469 12.9062ZM25.2969 12.9062V24H24.1719V12.9062C24.1719 10.7812 23.6771 8.88542 22.6875 7.21875C21.6979 5.54167 20.349 4.25 18.6406 3.34375C16.9323 2.42708 15.026 1.96875 12.9219 1.96875C10.901 1.96875 9.05208 2.45312 7.375 3.42188C5.69792 4.39062 4.38021 5.70312 3.42188 7.35938C2.46354 9.00521 1.98438 10.8021 1.98438 12.75C1.98438 14.0312 2.1875 15.25 2.59375 16.4062C3.01042 17.5521 3.57292 18.5573 4.28125 19.4219C5 20.276 5.82292 21.0156 6.75 21.6406C7.6875 22.2656 8.69271 22.7396 9.76562 23.0625C10.849 23.3854 11.9479 23.5469 13.0625 23.5469C14.2917 23.5469 15.4583 23.3125 16.5625 22.8438V24C15.4062 24.4062 14.2188 24.6094 13 24.6094C11.7396 24.6094 10.5104 24.4323 9.3125 24.0781C8.125 23.724 7.02083 23.2031 6 22.5156C4.98958 21.8177 4.09896 21 3.32812 20.0625C2.55729 19.1146 1.95312 18.0104 1.51562 16.75C1.07812 15.4896 0.859375 14.1562 0.859375 12.75C0.859375 11.1354 1.16146 9.59896 1.76562 8.14062C2.38021 6.67188 3.21354 5.40625 4.26562 4.34375C5.32812 3.27083 6.60938 2.42188 8.10938 1.79688C9.61979 1.16146 11.224 0.84375 12.9219 0.84375C14.651 0.84375 16.276 1.13542 17.7969 1.71875C19.3177 2.30208 20.6302 3.11458 21.7344 4.15625C22.8385 5.1875 23.7083 6.45833 24.3438 7.96875C24.9792 9.47917 25.2969 11.125 25.2969 12.9062Z" fill="black"/>
</svg>
