<svg width="44" height="30" viewBox="0 0 44 30" fill="none" xmlns="http://www.w3.org/2000/svg">
<path d="M16 5L13 9V23C13 23.5304 13.2107 24.0391 13.5858 24.4142C13.9609 24.7893 14.4696 25 15 25H29C29.5304 25 30.0391 24.7893 30.4142 24.4142C30.7893 24.0391 31 23.5304 31 23V9L28 5H16Z" stroke="#3F3F46" stroke-width="2" stroke-linecap="round" stroke-linejoin="round"/>
<path d="M13 9H31" stroke="#3F3F46" stroke-width="2" stroke-linecap="round" stroke-linejoin="round"/>
<path d="M26 13C26 14.0609 25.5786 15.0783 24.8284 15.8284C24.0783 16.5786 23.0609 17 22 17C20.9391 17 19.9217 16.5786 19.1716 15.8284C18.4214 15.0783 18 14.0609 18 13" stroke="#3F3F46" stroke-width="2" stroke-linecap="round" stroke-linejoin="round"/>
</svg>
